solid sphere_poly12
  facet normal 0 0 1
    outer loop
      vertex 2.24144 1.2941 9.65926
      vertex 2.24144 -1.2941 9.65926
      vertex 2.58819 0 9.65926
    endloop
  endfacet
  facet normal 0 0 1
    outer loop
      vertex 1.2941 2.24144 9.65926
      vertex 2.24144 -1.2941 9.65926
      vertex 2.24144 1.2941 9.65926
    endloop
  endfacet
  facet normal 0 0 1
    outer loop
      vertex 1.2941 2.24144 9.65926
      vertex 1.2941 -2.24144 9.65926
      vertex 2.24144 -1.2941 9.65926
    endloop
  endfacet
  facet normal 0 0 1
    outer loop
      vertex 1.58476e-016 2.58819 9.65926
      vertex 1.2941 -2.24144 9.65926
      vertex 1.2941 2.24144 9.65926
    endloop
  endfacet
  facet normal 0 0 1
    outer loop
      vertex 1.58476e-016 2.58819 9.65926
      vertex -4.75427e-016 -2.58819 9.65926
      vertex 1.2941 -2.24144 9.65926
    endloop
  endfacet
  facet normal -0 0 1
    outer loop
      vertex -1.2941 2.24144 9.65926
      vertex -4.75427e-016 -2.58819 9.65926
      vertex 1.58476e-016 2.58819 9.65926
    endloop
  endfacet
  facet normal 0 0 1
    outer loop
      vertex -1.2941 2.24144 9.65926
      vertex -1.2941 -2.24144 9.65926
      vertex -4.75427e-016 -2.58819 9.65926
    endloop
  endfacet
  facet normal -0 0 1
    outer loop
      vertex -2.24144 1.2941 9.65926
      vertex -1.2941 -2.24144 9.65926
      vertex -1.2941 2.24144 9.65926
    endloop
  endfacet
  facet normal 0 0 1
    outer loop
      vertex -2.24144 1.2941 9.65926
      vertex -2.24144 -1.2941 9.65926
      vertex -1.2941 -2.24144 9.65926
    endloop
  endfacet
  facet normal 0 -0 1
    outer loop
      vertex -2.24144 -1.2941 9.65926
      vertex -2.24144 1.2941 9.65926
      vertex -2.58819 3.16951e-016 9.65926
    endloop
  endfacet
  facet normal 0.495572 0.132788 0.858356
    outer loop
      vertex 7.07107 0 7.07107
      vertex 6.12372 3.53553 7.07107
      vertex 2.58819 0 9.65926
    endloop
  endfacet
  facet normal 0.495572 0.132788 0.858356
    outer loop
      vertex 6.12372 3.53553 7.07107
      vertex 2.24144 1.2941 9.65926
      vertex 2.58819 0 9.65926
    endloop
  endfacet
  facet normal 0.362784 0.362784 0.858356
    outer loop
      vertex 6.12372 3.53553 7.07107
      vertex 3.53553 6.12372 7.07107
      vertex 2.24144 1.2941 9.65926
    endloop
  endfacet
  facet normal 0.362784 0.362784 0.858356
    outer loop
      vertex 3.53553 6.12372 7.07107
      vertex 1.2941 2.24144 9.65926
      vertex 2.24144 1.2941 9.65926
    endloop
  endfacet
  facet normal 0.132788 0.495572 0.858356
    outer loop
      vertex 3.53553 6.12372 7.07107
      vertex 4.32964e-016 7.07107 7.07107
      vertex 1.2941 2.24144 9.65926
    endloop
  endfacet
  facet normal 0.132788 0.495572 0.858356
    outer loop
      vertex 4.32964e-016 7.07107 7.07107
      vertex 1.58476e-016 2.58819 9.65926
      vertex 1.2941 2.24144 9.65926
    endloop
  endfacet
  facet normal -0.132788 0.495572 0.858356
    outer loop
      vertex 4.32964e-016 7.07107 7.07107
      vertex -3.53553 6.12372 7.07107
      vertex 1.58476e-016 2.58819 9.65926
    endloop
  endfacet
  facet normal -0.132788 0.495572 0.858356
    outer loop
      vertex -3.53553 6.12372 7.07107
      vertex -1.2941 2.24144 9.65926
      vertex 1.58476e-016 2.58819 9.65926
    endloop
  endfacet
  facet normal -0.362784 0.362784 0.858356
    outer loop
      vertex -3.53553 6.12372 7.07107
      vertex -6.12372 3.53553 7.07107
      vertex -1.2941 2.24144 9.65926
    endloop
  endfacet
  facet normal -0.362784 0.362784 0.858356
    outer loop
      vertex -6.12372 3.53553 7.07107
      vertex -2.24144 1.2941 9.65926
      vertex -1.2941 2.24144 9.65926
    endloop
  endfacet
  facet normal -0.495572 0.132788 0.858356
    outer loop
      vertex -6.12372 3.53553 7.07107
      vertex -7.07107 8.65927e-016 7.07107
      vertex -2.24144 1.2941 9.65926
    endloop
  endfacet
  facet normal -0.495572 0.132788 0.858356
    outer loop
      vertex -7.07107 8.65927e-016 7.07107
      vertex -2.58819 3.16951e-016 9.65926
      vertex -2.24144 1.2941 9.65926
    endloop
  endfacet
  facet normal -0.495572 -0.132788 0.858356
    outer loop
      vertex -7.07107 8.65927e-016 7.07107
      vertex -6.12372 -3.53553 7.07107
      vertex -2.58819 3.16951e-016 9.65926
    endloop
  endfacet
  facet normal -0.495572 -0.132788 0.858356
    outer loop
      vertex -6.12372 -3.53553 7.07107
      vertex -2.24144 -1.2941 9.65926
      vertex -2.58819 3.16951e-016 9.65926
    endloop
  endfacet
  facet normal -0.362784 -0.362784 0.858356
    outer loop
      vertex -6.12372 -3.53553 7.07107
      vertex -3.53553 -6.12372 7.07107
      vertex -2.24144 -1.2941 9.65926
    endloop
  endfacet
  facet normal -0.362784 -0.362784 0.858356
    outer loop
      vertex -3.53553 -6.12372 7.07107
      vertex -1.2941 -2.24144 9.65926
      vertex -2.24144 -1.2941 9.65926
    endloop
  endfacet
  facet normal -0.132788 -0.495572 0.858356
    outer loop
      vertex -3.53553 -6.12372 7.07107
      vertex -1.29889e-015 -7.07107 7.07107
      vertex -1.2941 -2.24144 9.65926
    endloop
  endfacet
  facet normal -0.132788 -0.495572 0.858356
    outer loop
      vertex -1.29889e-015 -7.07107 7.07107
      vertex -4.75427e-016 -2.58819 9.65926
      vertex -1.2941 -2.24144 9.65926
    endloop
  endfacet
  facet normal 0.132788 -0.495572 0.858356
    outer loop
      vertex -1.29889e-015 -7.07107 7.07107
      vertex 3.53553 -6.12372 7.07107
      vertex -4.75427e-016 -2.58819 9.65926
    endloop
  endfacet
  facet normal 0.132788 -0.495572 0.858356
    outer loop
      vertex 3.53553 -6.12372 7.07107
      vertex 1.2941 -2.24144 9.65926
      vertex -4.75427e-016 -2.58819 9.65926
    endloop
  endfacet
  facet normal 0.362784 -0.362784 0.858356
    outer loop
      vertex 3.53553 -6.12372 7.07107
      vertex 6.12372 -3.53553 7.07107
      vertex 1.2941 -2.24144 9.65926
    endloop
  endfacet
  facet normal 0.362784 -0.362784 0.858356
    outer loop
      vertex 6.12372 -3.53553 7.07107
      vertex 2.24144 -1.2941 9.65926
      vertex 1.2941 -2.24144 9.65926
    endloop
  endfacet
  facet normal 0.495572 -0.132788 0.858356
    outer loop
      vertex 6.12372 -3.53553 7.07107
      vertex 7.07107 0 7.07107
      vertex 2.24144 -1.2941 9.65926
    endloop
  endfacet
  facet normal 0.495572 -0.132788 0.858356
    outer loop
      vertex 7.07107 0 7.07107
      vertex 2.58819 0 9.65926
      vertex 2.24144 -1.2941 9.65926
    endloop
  endfacet
  facet normal 0.84361 0.226045 0.487058
    outer loop
      vertex 9.65926 0 2.58819
      vertex 8.36516 4.82963 2.58819
      vertex 7.07107 0 7.07107
    endloop
  endfacet
  facet normal 0.84361 0.226045 0.487058
    outer loop
      vertex 8.36516 4.82963 2.58819
      vertex 6.12372 3.53553 7.07107
      vertex 7.07107 0 7.07107
    endloop
  endfacet
  facet normal 0.617565 0.617565 0.487058
    outer loop
      vertex 8.36516 4.82963 2.58819
      vertex 4.82963 8.36516 2.58819
      vertex 6.12372 3.53553 7.07107
    endloop
  endfacet
  facet normal 0.617565 0.617565 0.487058
    outer loop
      vertex 4.82963 8.36516 2.58819
      vertex 3.53553 6.12372 7.07107
      vertex 6.12372 3.53553 7.07107
    endloop
  endfacet
  facet normal 0.226045 0.84361 0.487058
    outer loop
      vertex 4.82963 8.36516 2.58819
      vertex 5.91439e-016 9.65926 2.58819
      vertex 3.53553 6.12372 7.07107
    endloop
  endfacet
  facet normal 0.226045 0.84361 0.487058
    outer loop
      vertex 5.91439e-016 9.65926 2.58819
      vertex 4.32964e-016 7.07107 7.07107
      vertex 3.53553 6.12372 7.07107
    endloop
  endfacet
  facet normal -0.226045 0.84361 0.487058
    outer loop
      vertex 5.91439e-016 9.65926 2.58819
      vertex -4.82963 8.36516 2.58819
      vertex 4.32964e-016 7.07107 7.07107
    endloop
  endfacet
  facet normal -0.226045 0.84361 0.487058
    outer loop
      vertex -4.82963 8.36516 2.58819
      vertex -3.53553 6.12372 7.07107
      vertex 4.32964e-016 7.07107 7.07107
    endloop
  endfacet
  facet normal -0.617565 0.617565 0.487058
    outer loop
      vertex -4.82963 8.36516 2.58819
      vertex -8.36516 4.82963 2.58819
      vertex -3.53553 6.12372 7.07107
    endloop
  endfacet
  facet normal -0.617565 0.617565 0.487058
    outer loop
      vertex -8.36516 4.82963 2.58819
      vertex -6.12372 3.53553 7.07107
      vertex -3.53553 6.12372 7.07107
    endloop
  endfacet
  facet normal -0.84361 0.226045 0.487058
    outer loop
      vertex -8.36516 4.82963 2.58819
      vertex -9.65926 1.18288e-015 2.58819
      vertex -6.12372 3.53553 7.07107
    endloop
  endfacet
  facet normal -0.84361 0.226045 0.487058
    outer loop
      vertex -9.65926 1.18288e-015 2.58819
      vertex -7.07107 8.65927e-016 7.07107
      vertex -6.12372 3.53553 7.07107
    endloop
  endfacet
  facet normal -0.84361 -0.226045 0.487058
    outer loop
      vertex -9.65926 1.18288e-015 2.58819
      vertex -8.36516 -4.82963 2.58819
      vertex -7.07107 8.65927e-016 7.07107
    endloop
  endfacet
  facet normal -0.84361 -0.226045 0.487058
    outer loop
      vertex -8.36516 -4.82963 2.58819
      vertex -6.12372 -3.53553 7.07107
      vertex -7.07107 8.65927e-016 7.07107
    endloop
  endfacet
  facet normal -0.617565 -0.617565 0.487058
    outer loop
      vertex -8.36516 -4.82963 2.58819
      vertex -4.82963 -8.36516 2.58819
      vertex -6.12372 -3.53553 7.07107
    endloop
  endfacet
  facet normal -0.617565 -0.617565 0.487058
    outer loop
      vertex -4.82963 -8.36516 2.58819
      vertex -3.53553 -6.12372 7.07107
      vertex -6.12372 -3.53553 7.07107
    endloop
  endfacet
  facet normal -0.226045 -0.84361 0.487058
    outer loop
      vertex -4.82963 -8.36516 2.58819
      vertex -1.77432e-015 -9.65926 2.58819
      vertex -3.53553 -6.12372 7.07107
    endloop
  endfacet
  facet normal -0.226045 -0.84361 0.487058
    outer loop
      vertex -1.77432e-015 -9.65926 2.58819
      vertex -1.29889e-015 -7.07107 7.07107
      vertex -3.53553 -6.12372 7.07107
    endloop
  endfacet
  facet normal 0.226045 -0.84361 0.487058
    outer loop
      vertex -1.77432e-015 -9.65926 2.58819
      vertex 4.82963 -8.36516 2.58819
      vertex -1.29889e-015 -7.07107 7.07107
    endloop
  endfacet
  facet normal 0.226045 -0.84361 0.487058
    outer loop
      vertex 4.82963 -8.36516 2.58819
      vertex 3.53553 -6.12372 7.07107
      vertex -1.29889e-015 -7.07107 7.07107
    endloop
  endfacet
  facet normal 0.617565 -0.617565 0.487058
    outer loop
      vertex 4.82963 -8.36516 2.58819
      vertex 8.36516 -4.82963 2.58819
      vertex 3.53553 -6.12372 7.07107
    endloop
  endfacet
  facet normal 0.617565 -0.617565 0.487058
    outer loop
      vertex 8.36516 -4.82963 2.58819
      vertex 6.12372 -3.53553 7.07107
      vertex 3.53553 -6.12372 7.07107
    endloop
  endfacet
  facet normal 0.84361 -0.226045 0.487058
    outer loop
      vertex 8.36516 -4.82963 2.58819
      vertex 9.65926 0 2.58819
      vertex 6.12372 -3.53553 7.07107
    endloop
  endfacet
  facet normal 0.84361 -0.226045 0.487058
    outer loop
      vertex 9.65926 0 2.58819
      vertex 7.07107 0 7.07107
      vertex 6.12372 -3.53553 7.07107
    endloop
  endfacet
  facet normal 0.965926 0.258819 -0
    outer loop
      vertex 9.65926 0 -2.58819
      vertex 8.36516 4.82963 -2.58819
      vertex 9.65926 0 2.58819
    endloop
  endfacet
  facet normal 0.965926 0.258819 -0
    outer loop
      vertex 8.36516 4.82963 -2.58819
      vertex 8.36516 4.82963 2.58819
      vertex 9.65926 0 2.58819
    endloop
  endfacet
  facet normal 0.707107 0.707107 -0
    outer loop
      vertex 8.36516 4.82963 -2.58819
      vertex 4.82963 8.36516 -2.58819
      vertex 8.36516 4.82963 2.58819
    endloop
  endfacet
  facet normal 0.707107 0.707107 -0
    outer loop
      vertex 4.82963 8.36516 -2.58819
      vertex 4.82963 8.36516 2.58819
      vertex 8.36516 4.82963 2.58819
    endloop
  endfacet
  facet normal 0.258819 0.965926 -0
    outer loop
      vertex 4.82963 8.36516 -2.58819
      vertex 5.91439e-016 9.65926 -2.58819
      vertex 4.82963 8.36516 2.58819
    endloop
  endfacet
  facet normal 0.258819 0.965926 -0
    outer loop
      vertex 5.91439e-016 9.65926 -2.58819
      vertex 5.91439e-016 9.65926 2.58819
      vertex 4.82963 8.36516 2.58819
    endloop
  endfacet
  facet normal -0.258819 0.965926 0
    outer loop
      vertex 5.91439e-016 9.65926 -2.58819
      vertex -4.82963 8.36516 -2.58819
      vertex 5.91439e-016 9.65926 2.58819
    endloop
  endfacet
  facet normal -0.258819 0.965926 0
    outer loop
      vertex -4.82963 8.36516 -2.58819
      vertex -4.82963 8.36516 2.58819
      vertex 5.91439e-016 9.65926 2.58819
    endloop
  endfacet
  facet normal -0.707107 0.707107 0
    outer loop
      vertex -4.82963 8.36516 -2.58819
      vertex -8.36516 4.82963 -2.58819
      vertex -4.82963 8.36516 2.58819
    endloop
  endfacet
  facet normal -0.707107 0.707107 0
    outer loop
      vertex -8.36516 4.82963 -2.58819
      vertex -8.36516 4.82963 2.58819
      vertex -4.82963 8.36516 2.58819
    endloop
  endfacet
  facet normal -0.965926 0.258819 0
    outer loop
      vertex -8.36516 4.82963 -2.58819
      vertex -9.65926 1.18288e-015 -2.58819
      vertex -8.36516 4.82963 2.58819
    endloop
  endfacet
  facet normal -0.965926 0.258819 0
    outer loop
      vertex -9.65926 1.18288e-015 -2.58819
      vertex -9.65926 1.18288e-015 2.58819
      vertex -8.36516 4.82963 2.58819
    endloop
  endfacet
  facet normal -0.965926 -0.258819 0
    outer loop
      vertex -9.65926 1.18288e-015 -2.58819
      vertex -8.36516 -4.82963 -2.58819
      vertex -9.65926 1.18288e-015 2.58819
    endloop
  endfacet
  facet normal -0.965926 -0.258819 0
    outer loop
      vertex -8.36516 -4.82963 -2.58819
      vertex -8.36516 -4.82963 2.58819
      vertex -9.65926 1.18288e-015 2.58819
    endloop
  endfacet
  facet normal -0.707107 -0.707107 0
    outer loop
      vertex -8.36516 -4.82963 -2.58819
      vertex -4.82963 -8.36516 -2.58819
      vertex -8.36516 -4.82963 2.58819
    endloop
  endfacet
  facet normal -0.707107 -0.707107 0
    outer loop
      vertex -4.82963 -8.36516 -2.58819
      vertex -4.82963 -8.36516 2.58819
      vertex -8.36516 -4.82963 2.58819
    endloop
  endfacet
  facet normal -0.258819 -0.965926 0
    outer loop
      vertex -4.82963 -8.36516 -2.58819
      vertex -1.77432e-015 -9.65926 -2.58819
      vertex -4.82963 -8.36516 2.58819
    endloop
  endfacet
  facet normal -0.258819 -0.965926 0
    outer loop
      vertex -1.77432e-015 -9.65926 -2.58819
      vertex -1.77432e-015 -9.65926 2.58819
      vertex -4.82963 -8.36516 2.58819
    endloop
  endfacet
  facet normal 0.258819 -0.965926 0
    outer loop
      vertex -1.77432e-015 -9.65926 -2.58819
      vertex 4.82963 -8.36516 -2.58819
      vertex -1.77432e-015 -9.65926 2.58819
    endloop
  endfacet
  facet normal 0.258819 -0.965926 0
    outer loop
      vertex 4.82963 -8.36516 -2.58819
      vertex 4.82963 -8.36516 2.58819
      vertex -1.77432e-015 -9.65926 2.58819
    endloop
  endfacet
  facet normal 0.707107 -0.707107 0
    outer loop
      vertex 4.82963 -8.36516 -2.58819
      vertex 8.36516 -4.82963 -2.58819
      vertex 4.82963 -8.36516 2.58819
    endloop
  endfacet
  facet normal 0.707107 -0.707107 0
    outer loop
      vertex 8.36516 -4.82963 -2.58819
      vertex 8.36516 -4.82963 2.58819
      vertex 4.82963 -8.36516 2.58819
    endloop
  endfacet
  facet normal 0.965926 -0.258819 0
    outer loop
      vertex 8.36516 -4.82963 -2.58819
      vertex 9.65926 0 -2.58819
      vertex 8.36516 -4.82963 2.58819
    endloop
  endfacet
  facet normal 0.965926 -0.258819 0
    outer loop
      vertex 9.65926 0 -2.58819
      vertex 9.65926 0 2.58819
      vertex 8.36516 -4.82963 2.58819
    endloop
  endfacet
  facet normal 0.84361 0.226045 -0.487058
    outer loop
      vertex 7.07107 0 -7.07107
      vertex 6.12372 3.53553 -7.07107
      vertex 9.65926 0 -2.58819
    endloop
  endfacet
  facet normal 0.84361 0.226045 -0.487058
    outer loop
      vertex 6.12372 3.53553 -7.07107
      vertex 8.36516 4.82963 -2.58819
      vertex 9.65926 0 -2.58819
    endloop
  endfacet
  facet normal 0.617565 0.617565 -0.487058
    outer loop
      vertex 6.12372 3.53553 -7.07107
      vertex 3.53553 6.12372 -7.07107
      vertex 8.36516 4.82963 -2.58819
    endloop
  endfacet
  facet normal 0.617565 0.617565 -0.487058
    outer loop
      vertex 3.53553 6.12372 -7.07107
      vertex 4.82963 8.36516 -2.58819
      vertex 8.36516 4.82963 -2.58819
    endloop
  endfacet
  facet normal 0.226045 0.84361 -0.487058
    outer loop
      vertex 3.53553 6.12372 -7.07107
      vertex 4.32964e-016 7.07107 -7.07107
      vertex 4.82963 8.36516 -2.58819
    endloop
  endfacet
  facet normal 0.226045 0.84361 -0.487058
    outer loop
      vertex 4.32964e-016 7.07107 -7.07107
      vertex 5.91439e-016 9.65926 -2.58819
      vertex 4.82963 8.36516 -2.58819
    endloop
  endfacet
  facet normal -0.226045 0.84361 -0.487058
    outer loop
      vertex 4.32964e-016 7.07107 -7.07107
      vertex -3.53553 6.12372 -7.07107
      vertex 5.91439e-016 9.65926 -2.58819
    endloop
  endfacet
  facet normal -0.226045 0.84361 -0.487058
    outer loop
      vertex -3.53553 6.12372 -7.07107
      vertex -4.82963 8.36516 -2.58819
      vertex 5.91439e-016 9.65926 -2.58819
    endloop
  endfacet
  facet normal -0.617565 0.617565 -0.487058
    outer loop
      vertex -3.53553 6.12372 -7.07107
      vertex -6.12372 3.53553 -7.07107
      vertex -4.82963 8.36516 -2.58819
    endloop
  endfacet
  facet normal -0.617565 0.617565 -0.487058
    outer loop
      vertex -6.12372 3.53553 -7.07107
      vertex -8.36516 4.82963 -2.58819
      vertex -4.82963 8.36516 -2.58819
    endloop
  endfacet
  facet normal -0.84361 0.226045 -0.487058
    outer loop
      vertex -6.12372 3.53553 -7.07107
      vertex -7.07107 8.65927e-016 -7.07107
      vertex -8.36516 4.82963 -2.58819
    endloop
  endfacet
  facet normal -0.84361 0.226045 -0.487058
    outer loop
      vertex -7.07107 8.65927e-016 -7.07107
      vertex -9.65926 1.18288e-015 -2.58819
      vertex -8.36516 4.82963 -2.58819
    endloop
  endfacet
  facet normal -0.84361 -0.226045 -0.487058
    outer loop
      vertex -7.07107 8.65927e-016 -7.07107
      vertex -6.12372 -3.53553 -7.07107
      vertex -9.65926 1.18288e-015 -2.58819
    endloop
  endfacet
  facet normal -0.84361 -0.226045 -0.487058
    outer loop
      vertex -6.12372 -3.53553 -7.07107
      vertex -8.36516 -4.82963 -2.58819
      vertex -9.65926 1.18288e-015 -2.58819
    endloop
  endfacet
  facet normal -0.617565 -0.617565 -0.487058
    outer loop
      vertex -6.12372 -3.53553 -7.07107
      vertex -3.53553 -6.12372 -7.07107
      vertex -8.36516 -4.82963 -2.58819
    endloop
  endfacet
  facet normal -0.617565 -0.617565 -0.487058
    outer loop
      vertex -3.53553 -6.12372 -7.07107
      vertex -4.82963 -8.36516 -2.58819
      vertex -8.36516 -4.82963 -2.58819
    endloop
  endfacet
  facet normal -0.226045 -0.84361 -0.487058
    outer loop
      vertex -3.53553 -6.12372 -7.07107
      vertex -1.29889e-015 -7.07107 -7.07107
      vertex -4.82963 -8.36516 -2.58819
    endloop
  endfacet
  facet normal -0.226045 -0.84361 -0.487058
    outer loop
      vertex -1.29889e-015 -7.07107 -7.07107
      vertex -1.77432e-015 -9.65926 -2.58819
      vertex -4.82963 -8.36516 -2.58819
    endloop
  endfacet
  facet normal 0.226045 -0.84361 -0.487058
    outer loop
      vertex -1.29889e-015 -7.07107 -7.07107
      vertex 3.53553 -6.12372 -7.07107
      vertex -1.77432e-015 -9.65926 -2.58819
    endloop
  endfacet
  facet normal 0.226045 -0.84361 -0.487058
    outer loop
      vertex 3.53553 -6.12372 -7.07107
      vertex 4.82963 -8.36516 -2.58819
      vertex -1.77432e-015 -9.65926 -2.58819
    endloop
  endfacet
  facet normal 0.617565 -0.617565 -0.487058
    outer loop
      vertex 3.53553 -6.12372 -7.07107
      vertex 6.12372 -3.53553 -7.07107
      vertex 4.82963 -8.36516 -2.58819
    endloop
  endfacet
  facet normal 0.617565 -0.617565 -0.487058
    outer loop
      vertex 6.12372 -3.53553 -7.07107
      vertex 8.36516 -4.82963 -2.58819
      vertex 4.82963 -8.36516 -2.58819
    endloop
  endfacet
  facet normal 0.84361 -0.226045 -0.487058
    outer loop
      vertex 6.12372 -3.53553 -7.07107
      vertex 7.07107 0 -7.07107
      vertex 8.36516 -4.82963 -2.58819
    endloop
  endfacet
  facet normal 0.84361 -0.226045 -0.487058
    outer loop
      vertex 7.07107 0 -7.07107
      vertex 9.65926 0 -2.58819
      vertex 8.36516 -4.82963 -2.58819
    endloop
  endfacet
  facet normal 0.495572 0.132788 -0.858356
    outer loop
      vertex 2.58819 0 -9.65926
      vertex 2.24144 1.2941 -9.65926
      vertex 7.07107 0 -7.07107
    endloop
  endfacet
  facet normal 0.495572 0.132788 -0.858356
    outer loop
      vertex 2.24144 1.2941 -9.65926
      vertex 6.12372 3.53553 -7.07107
      vertex 7.07107 0 -7.07107
    endloop
  endfacet
  facet normal 0.362784 0.362784 -0.858356
    outer loop
      vertex 2.24144 1.2941 -9.65926
      vertex 1.2941 2.24144 -9.65926
      vertex 6.12372 3.53553 -7.07107
    endloop
  endfacet
  facet normal 0.362784 0.362784 -0.858356
    outer loop
      vertex 1.2941 2.24144 -9.65926
      vertex 3.53553 6.12372 -7.07107
      vertex 6.12372 3.53553 -7.07107
    endloop
  endfacet
  facet normal 0.132788 0.495572 -0.858356
    outer loop
      vertex 1.2941 2.24144 -9.65926
      vertex 1.58476e-016 2.58819 -9.65926
      vertex 3.53553 6.12372 -7.07107
    endloop
  endfacet
  facet normal 0.132788 0.495572 -0.858356
    outer loop
      vertex 1.58476e-016 2.58819 -9.65926
      vertex 4.32964e-016 7.07107 -7.07107
      vertex 3.53553 6.12372 -7.07107
    endloop
  endfacet
  facet normal -0.132788 0.495572 -0.858356
    outer loop
      vertex 1.58476e-016 2.58819 -9.65926
      vertex -1.2941 2.24144 -9.65926
      vertex 4.32964e-016 7.07107 -7.07107
    endloop
  endfacet
  facet normal -0.132788 0.495572 -0.858356
    outer loop
      vertex -1.2941 2.24144 -9.65926
      vertex -3.53553 6.12372 -7.07107
      vertex 4.32964e-016 7.07107 -7.07107
    endloop
  endfacet
  facet normal -0.362784 0.362784 -0.858356
    outer loop
      vertex -1.2941 2.24144 -9.65926
      vertex -2.24144 1.2941 -9.65926
      vertex -3.53553 6.12372 -7.07107
    endloop
  endfacet
  facet normal -0.362784 0.362784 -0.858356
    outer loop
      vertex -2.24144 1.2941 -9.65926
      vertex -6.12372 3.53553 -7.07107
      vertex -3.53553 6.12372 -7.07107
    endloop
  endfacet
  facet normal -0.495572 0.132788 -0.858356
    outer loop
      vertex -2.24144 1.2941 -9.65926
      vertex -2.58819 3.16951e-016 -9.65926
      vertex -6.12372 3.53553 -7.07107
    endloop
  endfacet
  facet normal -0.495572 0.132788 -0.858356
    outer loop
      vertex -2.58819 3.16951e-016 -9.65926
      vertex -7.07107 8.65927e-016 -7.07107
      vertex -6.12372 3.53553 -7.07107
    endloop
  endfacet
  facet normal -0.495572 -0.132788 -0.858356
    outer loop
      vertex -2.58819 3.16951e-016 -9.65926
      vertex -2.24144 -1.2941 -9.65926
      vertex -7.07107 8.65927e-016 -7.07107
    endloop
  endfacet
  facet normal -0.495572 -0.132788 -0.858356
    outer loop
      vertex -2.24144 -1.2941 -9.65926
      vertex -6.12372 -3.53553 -7.07107
      vertex -7.07107 8.65927e-016 -7.07107
    endloop
  endfacet
  facet normal -0.362784 -0.362784 -0.858356
    outer loop
      vertex -2.24144 -1.2941 -9.65926
      vertex -1.2941 -2.24144 -9.65926
      vertex -6.12372 -3.53553 -7.07107
    endloop
  endfacet
  facet normal -0.362784 -0.362784 -0.858356
    outer loop
      vertex -1.2941 -2.24144 -9.65926
      vertex -3.53553 -6.12372 -7.07107
      vertex -6.12372 -3.53553 -7.07107
    endloop
  endfacet
  facet normal -0.132788 -0.495572 -0.858356
    outer loop
      vertex -1.2941 -2.24144 -9.65926
      vertex -4.75427e-016 -2.58819 -9.65926
      vertex -3.53553 -6.12372 -7.07107
    endloop
  endfacet
  facet normal -0.132788 -0.495572 -0.858356
    outer loop
      vertex -4.75427e-016 -2.58819 -9.65926
      vertex -1.29889e-015 -7.07107 -7.07107
      vertex -3.53553 -6.12372 -7.07107
    endloop
  endfacet
  facet normal 0.132788 -0.495572 -0.858356
    outer loop
      vertex -4.75427e-016 -2.58819 -9.65926
      vertex 1.2941 -2.24144 -9.65926
      vertex -1.29889e-015 -7.07107 -7.07107
    endloop
  endfacet
  facet normal 0.132788 -0.495572 -0.858356
    outer loop
      vertex 1.2941 -2.24144 -9.65926
      vertex 3.53553 -6.12372 -7.07107
      vertex -1.29889e-015 -7.07107 -7.07107
    endloop
  endfacet
  facet normal 0.362784 -0.362784 -0.858356
    outer loop
      vertex 1.2941 -2.24144 -9.65926
      vertex 2.24144 -1.2941 -9.65926
      vertex 3.53553 -6.12372 -7.07107
    endloop
  endfacet
  facet normal 0.362784 -0.362784 -0.858356
    outer loop
      vertex 2.24144 -1.2941 -9.65926
      vertex 6.12372 -3.53553 -7.07107
      vertex 3.53553 -6.12372 -7.07107
    endloop
  endfacet
  facet normal 0.495572 -0.132788 -0.858356
    outer loop
      vertex 2.24144 -1.2941 -9.65926
      vertex 2.58819 0 -9.65926
      vertex 6.12372 -3.53553 -7.07107
    endloop
  endfacet
  facet normal 0.495572 -0.132788 -0.858356
    outer loop
      vertex 2.58819 0 -9.65926
      vertex 7.07107 0 -7.07107
      vertex 6.12372 -3.53553 -7.07107
    endloop
  endfacet
  facet normal 0 0 -1
    outer loop
      vertex 2.24144 -1.2941 -9.65926
      vertex 2.24144 1.2941 -9.65926
      vertex 2.58819 0 -9.65926
    endloop
  endfacet
  facet normal 0 0 -1
    outer loop
      vertex 1.2941 -2.24144 -9.65926
      vertex 2.24144 1.2941 -9.65926
      vertex 2.24144 -1.2941 -9.65926
    endloop
  endfacet
  facet normal 0 0 -1
    outer loop
      vertex 1.2941 -2.24144 -9.65926
      vertex 1.2941 2.24144 -9.65926
      vertex 2.24144 1.2941 -9.65926
    endloop
  endfacet
  facet normal 0 0 -1
    outer loop
      vertex 1.2941 -2.24144 -9.65926
      vertex 1.58476e-016 2.58819 -9.65926
      vertex 1.2941 2.24144 -9.65926
    endloop
  endfacet
  facet normal 0 0 -1
    outer loop
      vertex -4.75427e-016 -2.58819 -9.65926
      vertex 1.58476e-016 2.58819 -9.65926
      vertex 1.2941 -2.24144 -9.65926
    endloop
  endfacet
  facet normal 0 0 -1
    outer loop
      vertex -1.2941 -2.24144 -9.65926
      vertex 1.58476e-016 2.58819 -9.65926
      vertex -4.75427e-016 -2.58819 -9.65926
    endloop
  endfacet
  facet normal 0 0 -1
    outer loop
      vertex -1.2941 -2.24144 -9.65926
      vertex -1.2941 2.24144 -9.65926
      vertex 1.58476e-016 2.58819 -9.65926
    endloop
  endfacet
  facet normal 0 0 -1
    outer loop
      vertex -2.24144 -1.2941 -9.65926
      vertex -1.2941 2.24144 -9.65926
      vertex -1.2941 -2.24144 -9.65926
    endloop
  endfacet
  facet normal 0 0 -1
    outer loop
      vertex -2.24144 -1.2941 -9.65926
      vertex -2.24144 1.2941 -9.65926
      vertex -1.2941 2.24144 -9.65926
    endloop
  endfacet
  facet normal 0 -0 -1
    outer loop
      vertex -2.24144 1.2941 -9.65926
      vertex -2.24144 -1.2941 -9.65926
      vertex -2.58819 3.16951e-016 -9.65926
    endloop
  endfacet
endsolid sphere_poly12
